<?xml version="1.0" encoding="iso-8859-1"?>
<!-- Uploaded to: SVG Repo, www.svgrepo.com, Generator: SVG Repo Mixer Tools -->
<svg fill="#fff" version="1.1" id="Layer_1" xmlns="http://www.w3.org/2000/svg" xmlns:xlink="http://www.w3.org/1999/xlink"
	 viewBox="0 0 512 512" xml:space="preserve">
<g>
	<g>
		<path d="M337.814,253.361v-58.062h21.113v-58.062h-26.392V15.835h55.423V0H124.041v15.835h55.423v121.402h-26.392v58.062h21.113
			v58.062H0V512h512V253.361H337.814z M195.299,15.835h121.402v121.402H195.299V15.835z M168.907,179.464v-26.392h174.186v26.392
			H168.907z M190.021,327.258V195.299h131.959v147.794h50.144c13.097,0,23.753,10.656,23.753,23.753
			c0,13.097-10.656,23.753-23.753,23.753h-126.68c-11.382,0-21.415-8.513-23.337-19.803l-1.122-6.588h-86.387
			c-10.186,0-18.474-8.288-18.474-18.474c0-10.186,8.288-18.474,18.474-18.474H190.021z M496.165,496.165H15.835V269.196h158.351
			v42.227h-39.588c-18.919,0-34.309,15.391-34.309,34.309c0,18.919,15.391,34.309,34.309,34.309h73.601
			c5.493,15.628,20.23,26.392,37.244,26.392h126.68c21.829,0,39.588-17.758,39.588-39.588s-17.758-39.588-39.588-39.588h-34.309
			v-58.062h158.351V496.165z"/>
	</g>
</g>
<g>
	<g>
		<rect x="213.773" y="36.948" width="84.454" height="15.835"/>
	</g>
</g>
<g>
	<g>
		<rect x="213.773" y="73.897" width="21.113" height="15.835"/>
	</g>
</g>
<g>
	<g>
		<rect x="245.443" y="73.897" width="21.113" height="15.835"/>
	</g>
</g>
<g>
	<g>
		<rect x="277.113" y="73.897" width="21.113" height="15.835"/>
	</g>
</g>
<g>
	<g>
		<rect x="211.134" y="219.052" width="15.835" height="85.087"/>
	</g>
</g>
<g>
	<g>
		<rect x="285.031" y="219.052" width="15.835" height="63.34"/>
	</g>
</g>
<g>
	<g>
		<rect x="248.082" y="219.052" width="15.835" height="26.392"/>
	</g>
</g>
<g>
	<g>
		<rect x="248.082" y="261.278" width="15.835" height="52.784"/>
	</g>
</g>
<g>
	<g>
		<rect x="208.495" y="321.979" width="21.113" height="15.835"/>
	</g>
</g>
<g>
	<g>
		<rect x="250.722" y="343.093" width="21.113" height="15.835"/>
	</g>
</g>
<g>
	<g>
		<rect x="282.392" y="311.423" width="21.113" height="15.835"/>
	</g>
</g>
<g>
	<g>
		<rect x="44.866" y="416.99" width="95.01" height="15.835"/>
	</g>
</g>
<g>
	<g>
		<rect x="155.711" y="416.99" width="21.113" height="15.835"/>
	</g>
</g>
<g>
	<g>
		<rect x="39.588" y="374.763" width="21.113" height="15.835"/>
	</g>
</g>
<g>
	<g>
		<rect x="60.701" y="311.423" width="21.113" height="15.835"/>
	</g>
</g>
<g>
	<g>
		<rect x="81.814" y="459.216" width="21.113" height="15.835"/>
	</g>
</g>
<g>
	<g>
		<rect x="398.516" y="290.309" width="21.113" height="15.835"/>
	</g>
</g>
<g>
	<g>
		<rect x="440.742" y="353.649" width="21.113" height="15.835"/>
	</g>
</g>
<g>
	<g>
		<rect x="266.557" y="448.66" width="58.062" height="15.835"/>
	</g>
</g>
<g>
	<g>
		<rect x="229.608" y="448.66" width="21.113" height="15.835"/>
	</g>
</g>
<g>
	<g>
		<rect x="419.629" y="427.546" width="58.062" height="15.835"/>
	</g>
</g>
<g>
	<g>
		<rect x="382.68" y="427.546" width="21.113" height="15.835"/>
	</g>
</g>
</svg>
