<svg width="80" height="80" viewBox="0 0 80 80" fill="none" xmlns="http://www.w3.org/2000/svg">
<mask id="mask0_330_16" style="mask-type:luminance" maskUnits="userSpaceOnUse" x="0" y="0" width="81" height="80">
<path d="M80.0002 0H0.000244141V80H80.0002V0Z" fill="white"/>
</mask>
<g mask="url(#mask0_330_16)">
<path d="M2.00073 52.2856L4.46521 53.4592C6.729 54.5372 9.79927 55.1428 13.0007 55.1428C16.2022 55.1428 19.2725 54.5372 21.5363 53.4592L22.4652 53.0169C24.729 51.9389 27.7993 51.3333 31.0007 51.3333C34.2023 51.3333 37.2723 51.9389 39.5363 53.0169L40.4651 53.4592C42.7291 54.5372 45.7991 55.1428 49.0007 55.1428C52.2023 55.1428 55.2723 54.5372 57.5363 53.4592L58.4651 53.0169C60.7291 51.9389 63.7991 51.3333 67.0007 51.3333C70.2021 51.3333 73.2721 51.9389 75.5361 53.0169L78.0007 54.1904M2.00073 63.7142L4.46521 64.8877C6.729 65.9659 9.79927 66.5713 13.0007 66.5713C16.2022 66.5713 19.2725 65.9659 21.5363 64.8877L22.4652 64.4454C24.729 63.3673 27.7993 62.7619 31.0007 62.7619C34.2023 62.7619 37.2723 63.3673 39.5363 64.4454L40.4651 64.8877C42.7291 65.9659 45.7991 66.5713 49.0007 66.5713C52.2023 66.5713 55.2723 65.9659 57.5363 64.8877L58.4651 64.4454C60.7291 63.3673 63.7991 62.7619 67.0007 62.7619C70.2021 62.7619 73.2721 63.3673 75.5361 64.4454L78.0007 65.619M2.00073 75.1426L4.46521 76.3166C6.729 77.3946 9.79927 77.9999 13.0007 77.9999C16.2022 77.9999 19.2725 77.3946 21.5363 76.3166L22.4652 75.8739C24.729 74.7959 27.7993 74.1906 31.0007 74.1906C34.2023 74.1906 37.2723 74.7959 39.5363 75.8739L40.4651 76.3166C42.7291 77.3946 45.7991 77.9999 49.0007 77.9999C52.2023 77.9999 55.2723 77.3946 57.5363 76.3166L58.4651 75.8739C60.7291 74.7959 63.7991 74.1906 67.0007 74.1906C70.2021 74.1906 73.2721 74.7959 75.5361 75.8739L78.0007 77.0472" stroke="black" stroke-width="3" stroke-linecap="round" stroke-linejoin="round"/>
<path d="M47.8819 25.1698C47.8819 27.6608 46.9676 30.0501 45.3401 31.8115C44.4161 32.8116 43.3051 33.5634 42.0961 34.026M53.6675 25.7956C53.6675 12.4106 40.1675 2 40.1675 2C40.1675 2 26.6675 12.4106 26.6675 25.7956C26.6675 29.7399 28.0898 33.5231 30.6215 36.3123C33.1533 39.1012 36.5873 40.6667 40.1677 40.6667C43.7481 40.6667 47.1817 39.1004 49.7133 36.3115C52.2451 33.5223 53.6675 29.7399 53.6675 25.7956Z" stroke="black" stroke-width="3" stroke-linecap="round" stroke-linejoin="round"/>
</g>
</svg>
